<svg xmlns="http://www.w3.org/2000/svg" width="28" height="28" viewBox="0 0 28 28">
  <g id="Group_2611" data-name="Group 2611" transform="translate(-362 -25.142)">
    <circle id="Ellipse_25" data-name="Ellipse 25" cx="14" cy="14" r="14" transform="translate(362 25.142)" fill="#bf7146"/>
    <path id="phone" d="M13.873,11.51a3.9,3.9,0,0,0-2.73-2.153.621.621,0,0,0-.553.132l-1.07.878a.633.633,0,0,1-.734.048A8.374,8.374,0,0,1,6.032,7.661a.633.633,0,0,1,.048-.734l.878-1.07A.621.621,0,0,0,7.09,5.3,3.939,3.939,0,0,0,4.925,2.562a.625.625,0,0,0-.565.012,13.778,13.778,0,0,0-1.6,1.01.658.658,0,0,0-.253.625,11.906,11.906,0,0,0,3.416,6.3,11.989,11.989,0,0,0,6.3,3.416.658.658,0,0,0,.625-.253,12.829,12.829,0,0,0,1.01-1.6.625.625,0,0,0,.012-.565Z" transform="translate(367.646 30.646)" fill="#fbf7f3"/>
  </g>
</svg>
