<svg xmlns="http://www.w3.org/2000/svg" width="69" height="69" viewBox="0 0 69 69">
  <g id="Group_2627" data-name="Group 2627" transform="translate(-435 -3012)">
    <g id="Happy_People" data-name="Happy People" transform="translate(435 3012)" fill="#626c59" stroke="#000" stroke-width="1">
      <circle cx="34.5" cy="34.5" r="34.5" stroke="none"/>
      <circle cx="34.5" cy="34.5" r="34" fill="none"/>
    </g>
    <path id="Path_30771" data-name="Path 30771" d="M327.645,23.987a7.949,7.949,0,0,1-.58,3.041,6.187,6.187,0,0,1-1.724,2.395,8.575,8.575,0,0,1-2.917,1.616,13.451,13.451,0,0,1-4.226.572q-1.707,0-3.215-.124a23.044,23.044,0,0,1-2.652-.355v-4.99h.6q.8.3,1.657.555a7.882,7.882,0,0,0,2.2.257,6.171,6.171,0,0,0,2.677-.465A2.789,2.789,0,0,0,320.8,25.2a4.729,4.729,0,0,0,.431-1.784q.05-.971.05-2.48V11.092h-5.652V6.551h12.016Z" transform="translate(149.348 3027.412)" fill="#fff"/>
  </g>
</svg>
