<svg xmlns="http://www.w3.org/2000/svg" width="197.692" height="42.508" viewBox="0 0 197.692 42.508">
  <g id="Group_2572" data-name="Group 2572" transform="translate(-910.194 -13.346)">
    <g id="Group_2571" data-name="Group 2571" transform="translate(910.194 13.346)">
      <g id="Group_2566" data-name="Group 2566" transform="translate(0 0)">
        <path id="Path_1" data-name="Path 1" d="M19.953,4.853,22.756,0,30.7,4.588,27.9,9.44a1.147,1.147,0,0,0,1.209,1.7L34.477,10.1l1.738,9.009-5.369,1.035A10.321,10.321,0,0,1,19.953,4.853Z" transform="translate(1.163 0)" fill="#626c59" fill-rule="evenodd"/>
        <path id="Path_2" data-name="Path 2" d="M16.262,36.347l-2.8,4.853L5.513,36.614l2.8-4.853a1.147,1.147,0,0,0-1.21-1.7L1.738,31.1,0,22.088l5.369-1.035A10.321,10.321,0,0,1,16.262,36.347Z" transform="translate(0 1.308)" fill="#626c59" fill-rule="evenodd"/>
        <path id="Path_3" data-name="Path 3" d="M16.489,4.853,13.688,0,5.742,4.588l2.8,4.852a1.147,1.147,0,0,1-1.21,1.7L1.965,10.1.23,19.113,5.6,20.148A10.32,10.32,0,0,0,16.49,4.853Z" transform="translate(-0.23 0)" fill="#bf7146" fill-rule="evenodd"/>
        <path id="Path_4" data-name="Path 4" d="M19.733,36.347l2.8,4.853,7.946-4.587-2.8-4.853a1.147,1.147,0,0,1,1.21-1.7L34.255,31.1l1.738-9.008-5.369-1.035A10.321,10.321,0,0,0,19.731,36.347Z" transform="translate(1.149 1.308)" fill="#bf7146" fill-rule="evenodd"/>
      </g>
    </g>
    <path id="Path_30753" data-name="Path 30753" d="M18.962,29.059A5.155,5.155,0,0,1,16.7,33.4a10.148,10.148,0,0,1-6.147,1.669,17.162,17.162,0,0,1-3.914-.394,20.185,20.185,0,0,1-3.125-1V29.338h.51A10.8,10.8,0,0,0,7.257,31.11a10.515,10.515,0,0,0,3.44.619,11.162,11.162,0,0,0,1.116-.073,4.462,4.462,0,0,0,1.129-.243,2.81,2.81,0,0,0,.88-.546,1.276,1.276,0,0,0,.346-.971,1.309,1.309,0,0,0-.5-1.025,3.5,3.5,0,0,0-1.474-.661q-1.019-.243-2.154-.455a16.536,16.536,0,0,1-2.13-.54,6.689,6.689,0,0,1-3.283-2.008,4.925,4.925,0,0,1-1-3.149,4.846,4.846,0,0,1,2.263-4.12,9.871,9.871,0,0,1,5.819-1.6,18.054,18.054,0,0,1,3.525.346,16.477,16.477,0,0,1,3.016.868v4.163h-.5a9.607,9.607,0,0,0-2.676-1.462,9.216,9.216,0,0,0-3.234-.589,8.539,8.539,0,0,0-1.159.079,4.55,4.55,0,0,0-1.11.3,2.123,2.123,0,0,0-.813.552,1.213,1.213,0,0,0-.34.843,1.259,1.259,0,0,0,.546,1.1,6.118,6.118,0,0,0,2.063.7q1,.206,1.911.4a20.028,20.028,0,0,1,1.972.534,6.59,6.59,0,0,1,3.064,1.851A4.55,4.55,0,0,1,18.962,29.059Zm15.268-3.981v9.66H29.848V27.931q0-1-.049-1.693a3.021,3.021,0,0,0-.267-1.135,1.334,1.334,0,0,0-.661-.637,3.1,3.1,0,0,0-1.244-.2,3.134,3.134,0,0,0-1.25.261,9.149,9.149,0,0,0-1.092.552v9.66H20.9V21.11h4.381v1.5a11.961,11.961,0,0,1,2.158-1.383,5.17,5.17,0,0,1,2.279-.5,4.629,4.629,0,0,1,2.376.6A4.1,4.1,0,0,1,33.709,23.1a13.557,13.557,0,0,1,2.545-1.735,5.306,5.306,0,0,1,2.424-.631,4.191,4.191,0,0,1,3.351,1.323,5.656,5.656,0,0,1,1.145,3.811v8.871H38.792V27.931q0-1.007-.042-1.7a2.937,2.937,0,0,0-.261-1.129,1.275,1.275,0,0,0-.655-.637,3.184,3.184,0,0,0-1.262-.2,3.127,3.127,0,0,0-1.068.188A8.18,8.18,0,0,0,34.229,25.079Zm20.243,6.1V28.343q-.886.073-1.917.2a9.247,9.247,0,0,0-1.566.3,2.156,2.156,0,0,0-1,.6,1.509,1.509,0,0,0-.346,1.034,2.684,2.684,0,0,0,.073.69,1.036,1.036,0,0,0,.364.508,1.771,1.771,0,0,0,.667.357,4.652,4.652,0,0,0,1.214.115,3.6,3.6,0,0,0,1.329-.266A4.154,4.154,0,0,0,54.473,31.174Zm0,2.121q-.352.267-.874.643a6.363,6.363,0,0,1-.983.595,6.2,6.2,0,0,1-1.335.431,7.681,7.681,0,0,1-1.517.14,4.632,4.632,0,0,1-3.252-1.2,3.98,3.98,0,0,1-1.311-3.07,4.138,4.138,0,0,1,.667-2.439A4.478,4.478,0,0,1,47.762,26.9a10.7,10.7,0,0,1,3.01-.777q1.8-.231,3.726-.34V25.71a1.57,1.57,0,0,0-.922-1.559,6.669,6.669,0,0,0-2.718-.431,7.76,7.76,0,0,0-2.306.382q-1.226.382-1.76.589h-.4V21.4q.692-.182,2.251-.431a19.806,19.806,0,0,1,3.125-.249q3.726,0,5.382,1.147a4.07,4.07,0,0,1,1.657,3.6v9.272H54.473Zm17.234-8.022h-.387a3.912,3.912,0,0,0-.9-.146q-.618-.049-1.029-.049a9.926,9.926,0,0,0-1.647.121,9.324,9.324,0,0,0-1.538.413v9.126H61.828V21.11h4.381v2a9.1,9.1,0,0,1,2.507-1.644,5.542,5.542,0,0,1,1.962-.407q.23,0,.521.012t.509.036Zm10.2,9.346a12.393,12.393,0,0,1-1.493.284,15.276,15.276,0,0,1-1.93.1,5.854,5.854,0,0,1-3.792-1.032,4.363,4.363,0,0,1-1.244-3.532V24.071h-1.8V21.11h1.8v-3.9h4.381v3.9H81.9v2.961H77.824v4.837q0,.717.012,1.252a2.578,2.578,0,0,0,.194.96,1.344,1.344,0,0,0,.6.674,2.536,2.536,0,0,0,1.252.249,4.989,4.989,0,0,0,1.658-.413H81.9Zm24.274-12.246a6.845,6.845,0,0,1-.425,2.373,5.277,5.277,0,0,1-1.214,1.948,7.42,7.42,0,0,1-2.409,1.614,8.737,8.737,0,0,1-3.307.546h-2.9v5.886H91.26V16.669h7.67a12.122,12.122,0,0,1,2.907.3,6.845,6.845,0,0,1,2.093.892A4.8,4.8,0,0,1,105.6,19.69,5.783,5.783,0,0,1,106.175,22.372Zm-4.818.1a2.13,2.13,0,0,0-.413-1.314,2.238,2.238,0,0,0-.959-.769,4.333,4.333,0,0,0-1.42-.321q-.692-.03-1.845-.03h-.8v5.4h1.335a10.883,10.883,0,0,0,1.96-.145,2.779,2.779,0,0,0,1.292-.581,2.239,2.239,0,0,0,.649-.926A3.789,3.789,0,0,0,101.357,22.476ZM112.62,34.739h-4.381V15.855h4.381Zm11.372-3.565V28.343q-.886.073-1.917.2a9.247,9.247,0,0,0-1.566.3,2.156,2.156,0,0,0-1,.6,1.509,1.509,0,0,0-.346,1.034,2.684,2.684,0,0,0,.073.69,1.036,1.036,0,0,0,.364.508,1.771,1.771,0,0,0,.667.357,4.651,4.651,0,0,0,1.214.115,3.6,3.6,0,0,0,1.329-.266A4.154,4.154,0,0,0,123.992,31.174Zm0,2.121q-.352.267-.874.643a6.363,6.363,0,0,1-.983.595,6.2,6.2,0,0,1-1.335.431,7.681,7.681,0,0,1-1.517.14,4.632,4.632,0,0,1-3.252-1.2,3.98,3.98,0,0,1-1.311-3.07,4.138,4.138,0,0,1,.667-2.439,4.478,4.478,0,0,1,1.893-1.493,10.7,10.7,0,0,1,3.01-.777q1.8-.231,3.726-.34V25.71a1.57,1.57,0,0,0-.922-1.559,6.669,6.669,0,0,0-2.718-.431,7.76,7.76,0,0,0-2.306.382q-1.226.382-1.76.589h-.4V21.4q.692-.182,2.251-.431a19.806,19.806,0,0,1,3.125-.249q3.726,0,5.382,1.147a4.07,4.07,0,0,1,1.657,3.6v9.272h-4.332Zm16.069,1.324a12.393,12.393,0,0,1-1.493.284,15.277,15.277,0,0,1-1.93.1,5.854,5.854,0,0,1-3.792-1.032,4.363,4.363,0,0,1-1.244-3.532V24.071h-1.8V21.11h1.8v-3.9h4.381v3.9h4.078v2.961h-4.078v4.837q0,.717.012,1.252a2.578,2.578,0,0,0,.194.96,1.344,1.344,0,0,0,.6.674,2.536,2.536,0,0,0,1.252.249,4.988,4.988,0,0,0,1.658-.413h.363ZM155.1,28.732h-10a3.143,3.143,0,0,0,1.22,2.451,5.425,5.425,0,0,0,3.307.85,7.434,7.434,0,0,0,2.682-.5,8.4,8.4,0,0,0,2.051-1.068h.485v3.507a16.226,16.226,0,0,1-2.791.862,14.564,14.564,0,0,1-2.9.267,9.491,9.491,0,0,1-6.286-1.845A6.5,6.5,0,0,1,140.681,28a7.035,7.035,0,0,1,2.069-5.346,7.886,7.886,0,0,1,5.673-1.972,6.773,6.773,0,0,1,5,1.681A6.56,6.56,0,0,1,155.1,27.2Zm-4.345-2.561a3.058,3.058,0,0,0-.68-2.063,2.613,2.613,0,0,0-2-.692,3.2,3.2,0,0,0-2.075.655,2.8,2.8,0,0,0-.91,2.1ZM20.928,57.333h-4.49l-7.67-12.4v12.4H4.5V39.263h5.57l6.59,10.352V39.263h4.272Zm16.955,0H33.5v-1.5a12.975,12.975,0,0,1-2.218,1.4,5.533,5.533,0,0,1-2.4.479,4.53,4.53,0,0,1-3.472-1.3,5.414,5.414,0,0,1-1.218-3.835V43.7h4.381v6.76q0,1.032.067,1.717a2.992,2.992,0,0,0,.309,1.135,1.394,1.394,0,0,0,.7.655,3.315,3.315,0,0,0,1.3.206,4.3,4.3,0,0,0,1.238-.206,5.329,5.329,0,0,0,1.311-.607V43.7h4.381Zm11.845-.12a12.392,12.392,0,0,1-1.493.284,15.278,15.278,0,0,1-1.93.1,5.854,5.854,0,0,1-3.792-1.032,4.363,4.363,0,0,1-1.244-3.532V46.666h-1.8V43.7h1.8v-3.9H45.65v3.9h4.078v2.961H45.65V51.5q0,.717.012,1.252a2.578,2.578,0,0,0,.194.96,1.344,1.344,0,0,0,.6.674,2.536,2.536,0,0,0,1.252.249,4.989,4.989,0,0,0,1.658-.413h.363Zm11.494-9.346h-.387a3.912,3.912,0,0,0-.9-.146q-.618-.049-1.029-.049a9.926,9.926,0,0,0-1.647.121,9.324,9.324,0,0,0-1.538.413v9.126H51.343V43.7h4.381v2a9.1,9.1,0,0,1,2.507-1.644,5.542,5.542,0,0,1,1.962-.407q.23,0,.521.012t.509.036Zm5.863,9.466H62.7V43.7h4.381Zm.121-15.57H62.581V38.45h4.624Zm11.712,15.45a12.392,12.392,0,0,1-1.493.284,15.278,15.278,0,0,1-1.93.1A5.854,5.854,0,0,1,71.7,56.569a4.363,4.363,0,0,1-1.244-3.532V46.666h-1.8V43.7h1.8v-3.9H74.84v3.9h4.078v2.961H74.84V51.5q0,.717.012,1.252a2.578,2.578,0,0,0,.194.96,1.344,1.344,0,0,0,.6.674,2.536,2.536,0,0,0,1.252.249,4.989,4.989,0,0,0,1.658-.413h.363Zm6,.12H80.532V43.7h4.381Zm.121-15.57H80.411V38.45h4.624Zm16.93,8.762a7.108,7.108,0,0,1-1.96,5.3,8.792,8.792,0,0,1-11.007,0,7.108,7.108,0,0,1-1.96-5.3A7.1,7.1,0,0,1,89.01,45.21a8.792,8.792,0,0,1,11.007.012A7.154,7.154,0,0,1,101.965,50.525Zm-5.376,3.313a3.506,3.506,0,0,0,.637-1.256,7.64,7.64,0,0,0,.212-2.033,7.9,7.9,0,0,0-.218-2.015,3.525,3.525,0,0,0-.607-1.3,2.129,2.129,0,0,0-.934-.7,3.3,3.3,0,0,0-1.177-.206,3.428,3.428,0,0,0-1.123.17,2.268,2.268,0,0,0-.941.68,3.476,3.476,0,0,0-.637,1.3,7.668,7.668,0,0,0-.237,2.075,8,8,0,0,0,.206,1.936,3.4,3.4,0,0,0,.607,1.317,2.308,2.308,0,0,0,.928.692,3.449,3.449,0,0,0,2.366.018A2.079,2.079,0,0,0,96.589,53.838Zm21.2,3.5H113.41v-6.76a15.931,15.931,0,0,0-.085-1.644,3.464,3.464,0,0,0-.291-1.208,1.453,1.453,0,0,0-.71-.655,3.315,3.315,0,0,0-1.3-.206,3.983,3.983,0,0,0-1.208.194,6.487,6.487,0,0,0-1.329.619v9.66H104.1V43.7h4.381v1.5a11.131,11.131,0,0,1,2.236-1.4,5.71,5.71,0,0,1,2.382-.485,4.569,4.569,0,0,1,3.448,1.286,5.338,5.338,0,0,1,1.242,3.847Z" transform="translate(952.788 -1.904)" fill="#626c59"/>
  </g>
</svg>
