<svg xmlns="http://www.w3.org/2000/svg" width="250.337" height="52.525" viewBox="0 0 250.337 52.525">
  <g id="Smartplate_Color" data-name="Smartplate Color" transform="translate(-75.098 -26)">
    <path id="Path_3" data-name="Path 3" d="M20.321,6,16.86,0,7.041,5.669,16.86,16.747a1.418,1.418,0,0,1-1.5,2.1L2.374,12.485.23,23.617,6.863,24.9A12.752,12.752,0,0,0,20.322,6Z" transform="translate(80.925 26)" fill="#fbf7f3" fill-rule="evenodd"/>
    <path id="Path_30773" data-name="Path 30773" d="M20.091,6,16.63,0,6.811,5.669,16.63,16.747a1.418,1.418,0,0,1-1.5,2.1L2.144,12.485,0,23.617,6.633,24.9A12.752,12.752,0,0,0,20.092,6Z" transform="translate(75.098 70.341) rotate(-71)" fill="#fbf7f3" fill-rule="evenodd"/>
    <path id="Path_30774" data-name="Path 30774" d="M20.091,6,16.63,0,6.811,5.669,16.63,16.747a1.418,1.418,0,0,1-1.5,2.1L2.144,12.485,0,23.617,6.633,24.9A12.752,12.752,0,0,0,20.092,6Z" transform="matrix(-0.259, 0.966, -0.966, -0.259, 132.755, 33.123)" fill="#fbf7f3" fill-rule="evenodd"/>
    <path id="Path_30768" data-name="Path 30768" d="M20.091,6,16.63,0,6.811,5.669,16.63,16.747a1.418,1.418,0,0,1-1.5,2.1L2.144,12.485,0,23.617,6.633,24.9A12.752,12.752,0,0,0,20.092,6Z" transform="translate(127.049 78.526) rotate(180)" fill="#fbf7f3" fill-rule="evenodd"/>
    <path id="Path_30753" data-name="Path 30753" d="M22.6,32.171a6.37,6.37,0,0,1-2.8,5.361,12.54,12.54,0,0,1-7.6,2.062,21.206,21.206,0,0,1-4.836-.487,24.942,24.942,0,0,1-3.861-1.237V32.516h.63a13.34,13.34,0,0,0,4,2.189,12.993,12.993,0,0,0,4.251.765,13.793,13.793,0,0,0,1.38-.09,5.514,5.514,0,0,0,1.395-.3,3.472,3.472,0,0,0,1.087-.675,1.576,1.576,0,0,0,.427-1.2,1.618,1.618,0,0,0-.622-1.267,4.325,4.325,0,0,0-1.822-.817q-1.26-.3-2.662-.562a20.433,20.433,0,0,1-2.632-.667A8.265,8.265,0,0,1,4.885,27.41a6.085,6.085,0,0,1-1.237-3.891,5.988,5.988,0,0,1,2.8-5.091,12.2,12.2,0,0,1,7.19-1.972,22.308,22.308,0,0,1,4.356.427,20.359,20.359,0,0,1,3.726,1.072V23.1H21.1A11.87,11.87,0,0,0,17.8,21.291a11.387,11.387,0,0,0-4-.727,10.551,10.551,0,0,0-1.432.1A5.622,5.622,0,0,0,11,21.029a2.624,2.624,0,0,0-1,.682,1.5,1.5,0,0,0-.42,1.042,1.556,1.556,0,0,0,.675,1.357,7.559,7.559,0,0,0,2.549.862q1.23.255,2.362.495a24.748,24.748,0,0,1,2.437.66,8.143,8.143,0,0,1,3.786,2.287A5.623,5.623,0,0,1,22.6,32.171Zm18.866-4.919V39.189H36.055V30.776q0-1.23-.06-2.092a3.732,3.732,0,0,0-.33-1.4,1.648,1.648,0,0,0-.817-.787,3.83,3.83,0,0,0-1.537-.247,3.873,3.873,0,0,0-1.545.322,11.305,11.305,0,0,0-1.35.682V39.189H25V22.349h5.413v1.859a14.78,14.78,0,0,1,2.666-1.71,6.389,6.389,0,0,1,2.816-.615,5.72,5.72,0,0,1,2.935.742,5.07,5.07,0,0,1,1.992,2.182,16.752,16.752,0,0,1,3.145-2.144,6.557,6.557,0,0,1,2.995-.78,5.179,5.179,0,0,1,4.14,1.635,6.989,6.989,0,0,1,1.415,4.709V39.189H47.106V30.776q0-1.245-.052-2.1a3.629,3.629,0,0,0-.322-1.395,1.575,1.575,0,0,0-.81-.787,3.935,3.935,0,0,0-1.56-.247,3.864,3.864,0,0,0-1.32.232A10.107,10.107,0,0,0,41.468,27.252Zm25.014,7.532v-3.5q-1.095.09-2.369.247a11.426,11.426,0,0,0-1.934.366,2.665,2.665,0,0,0-1.237.74,1.864,1.864,0,0,0-.427,1.278,3.316,3.316,0,0,0,.09.852,1.28,1.28,0,0,0,.45.628,2.188,2.188,0,0,0,.825.441,5.748,5.748,0,0,0,1.5.142,4.446,4.446,0,0,0,1.642-.329A5.132,5.132,0,0,0,66.482,34.784Zm0,2.62q-.435.33-1.08.795a7.863,7.863,0,0,1-1.215.735,7.657,7.657,0,0,1-1.65.532,9.491,9.491,0,0,1-1.874.172,5.724,5.724,0,0,1-4.019-1.485,4.918,4.918,0,0,1-1.62-3.794,5.114,5.114,0,0,1,.825-3.014A5.534,5.534,0,0,1,58.189,29.5a13.223,13.223,0,0,1,3.719-.96q2.219-.285,4.6-.42v-.09a1.941,1.941,0,0,0-1.14-1.927,8.24,8.24,0,0,0-3.359-.532,9.589,9.589,0,0,0-2.849.472q-1.515.472-2.174.727h-.495V22.708q.855-.225,2.782-.532a24.473,24.473,0,0,1,3.861-.307q4.6,0,6.651,1.417a5.029,5.029,0,0,1,2.047,4.446V39.189H66.482Zm21.3-9.912H87.3a4.834,4.834,0,0,0-1.107-.18q-.763-.06-1.272-.06a12.266,12.266,0,0,0-2.035.15,11.522,11.522,0,0,0-1.9.51V39.189H75.571V22.349h5.413v2.474a11.241,11.241,0,0,1,3.1-2.032,6.848,6.848,0,0,1,2.424-.5q.284,0,.643.015t.628.045Zm12.6,11.548a15.312,15.312,0,0,1-1.844.351,18.876,18.876,0,0,1-2.384.127,7.234,7.234,0,0,1-4.686-1.275q-1.537-1.275-1.537-4.364V26.008H87.7V22.349h2.219V17.535h5.413v4.814h5.039v3.659H95.336v5.977q0,.886.015,1.547a3.185,3.185,0,0,0,.239,1.187,1.661,1.661,0,0,0,.74.833,3.134,3.134,0,0,0,1.547.308,6.164,6.164,0,0,0,2.048-.51h.448Zm29.994-15.132a8.458,8.458,0,0,1-.525,2.932,6.521,6.521,0,0,1-1.5,2.407,9.168,9.168,0,0,1-2.977,1.994,10.8,10.8,0,0,1-4.086.675H117.7v7.273h-5.758V16.86h9.477a14.978,14.978,0,0,1,3.591.367,8.458,8.458,0,0,1,2.587,1.1,5.929,5.929,0,0,1,2.062,2.264A7.145,7.145,0,0,1,130.368,23.908Zm-5.953.128a2.631,2.631,0,0,0-.51-1.623,2.766,2.766,0,0,0-1.185-.95,5.355,5.355,0,0,0-1.755-.4q-.855-.037-2.279-.037h-.99V27.7h1.65a13.448,13.448,0,0,0,2.422-.18,3.434,3.434,0,0,0,1.6-.718,2.766,2.766,0,0,0,.8-1.145A4.682,4.682,0,0,0,124.415,24.036Zm13.917,15.152h-5.413V15.855h5.413Zm14.052-4.4v-3.5q-1.095.09-2.369.247a11.426,11.426,0,0,0-1.934.366,2.665,2.665,0,0,0-1.237.74,1.864,1.864,0,0,0-.427,1.278,3.316,3.316,0,0,0,.09.852,1.28,1.28,0,0,0,.45.628,2.188,2.188,0,0,0,.825.441,5.748,5.748,0,0,0,1.5.142,4.446,4.446,0,0,0,1.642-.329A5.133,5.133,0,0,0,152.384,34.784Zm0,2.62q-.435.33-1.08.795a7.863,7.863,0,0,1-1.215.735,7.657,7.657,0,0,1-1.65.532,9.491,9.491,0,0,1-1.874.172,5.724,5.724,0,0,1-4.019-1.485,4.918,4.918,0,0,1-1.62-3.794,5.114,5.114,0,0,1,.825-3.014,5.534,5.534,0,0,1,2.339-1.844,13.223,13.223,0,0,1,3.719-.96q2.219-.285,4.6-.42v-.09a1.941,1.941,0,0,0-1.14-1.927,8.24,8.24,0,0,0-3.359-.532,9.589,9.589,0,0,0-2.849.472q-1.515.472-2.174.727H142.4V22.708q.855-.225,2.782-.532a24.473,24.473,0,0,1,3.861-.307q4.6,0,6.651,1.417a5.029,5.029,0,0,1,2.047,4.446V39.189h-5.353ZM172.24,39.04a15.312,15.312,0,0,1-1.844.351,18.877,18.877,0,0,1-2.384.127,7.234,7.234,0,0,1-4.686-1.275q-1.537-1.275-1.537-4.364V26.008h-2.219V22.349h2.219V17.535H167.2v4.814h5.039v3.659H167.2v5.977q0,.886.015,1.547a3.186,3.186,0,0,0,.239,1.187,1.661,1.661,0,0,0,.74.833,3.134,3.134,0,0,0,1.547.308,6.164,6.164,0,0,0,2.048-.51h.448Zm18.581-7.275H178.464a3.884,3.884,0,0,0,1.507,3.029,6.7,6.7,0,0,0,4.086,1.05,9.186,9.186,0,0,0,3.314-.615,10.378,10.378,0,0,0,2.534-1.32h.6v4.334a20.05,20.05,0,0,1-3.449,1.065,18,18,0,0,1-3.584.33q-5.069,0-7.768-2.279a8.027,8.027,0,0,1-2.7-6.493,8.693,8.693,0,0,1,2.557-6.606,9.744,9.744,0,0,1,7.01-2.437q4.109,0,6.178,2.077a8.106,8.106,0,0,1,2.069,5.976ZM185.452,28.6a3.779,3.779,0,0,0-.84-2.549,3.229,3.229,0,0,0-2.474-.855,3.957,3.957,0,0,0-2.564.81,3.455,3.455,0,0,0-1.125,2.594ZM25.031,67.108H19.483L10.006,51.782V67.108H4.727V44.779H11.61l8.143,12.791V44.779h5.278Zm20.95,0H40.568V65.249a16.033,16.033,0,0,1-2.741,1.732,6.837,6.837,0,0,1-2.965.592,5.6,5.6,0,0,1-4.291-1.6,6.69,6.69,0,0,1-1.505-4.739V50.268H34.48V58.62q0,1.275.082,2.122a3.7,3.7,0,0,0,.382,1.4,1.723,1.723,0,0,0,.862.81,4.1,4.1,0,0,0,1.612.255,5.309,5.309,0,0,0,1.53-.255,6.584,6.584,0,0,0,1.62-.75V50.268h5.413Zm14.637-.148a15.313,15.313,0,0,1-1.844.351,18.879,18.879,0,0,1-2.384.127A7.234,7.234,0,0,1,51.7,66.163q-1.537-1.275-1.537-4.364V53.927H47.947V50.268h2.219V45.454H55.58v4.814h5.039v3.659H55.58V59.9q0,.886.015,1.547a3.185,3.185,0,0,0,.239,1.187,1.661,1.661,0,0,0,.74.833,3.134,3.134,0,0,0,1.547.308,6.165,6.165,0,0,0,2.048-.51h.448Zm14.2-11.548h-.479a4.834,4.834,0,0,0-1.107-.18q-.763-.06-1.272-.06a12.265,12.265,0,0,0-2.035.15,11.521,11.521,0,0,0-1.9.51V67.108H62.614V50.268h5.413v2.474a11.242,11.242,0,0,1,3.1-2.032,6.848,6.848,0,0,1,2.424-.5q.284,0,.643.015t.628.045Zm7.244,11.7H76.651V50.268h5.413Zm.15-19.239H76.5V43.775h5.713ZM96.687,66.96a15.313,15.313,0,0,1-1.844.351,18.879,18.879,0,0,1-2.384.127,7.234,7.234,0,0,1-4.686-1.275q-1.537-1.275-1.537-4.364V53.927H84.016V50.268h2.219V45.454h5.413v4.814h5.039v3.659H91.648V59.9q0,.886.015,1.547a3.185,3.185,0,0,0,.239,1.187,1.661,1.661,0,0,0,.74.833,3.134,3.134,0,0,0,1.547.308,6.165,6.165,0,0,0,2.048-.51h.448Zm7.409.148H98.682V50.268H104.1Zm.15-19.239H98.533V43.775h5.713ZM125.166,58.7a8.783,8.783,0,0,1-2.422,6.546,10.864,10.864,0,0,1-13.6,0,8.783,8.783,0,0,1-2.422-6.546,8.767,8.767,0,0,1,2.437-6.568,10.864,10.864,0,0,1,13.6.015A8.839,8.839,0,0,1,125.166,58.7Zm-6.643,4.094a4.332,4.332,0,0,0,.787-1.552,9.44,9.44,0,0,0,.262-2.512,9.756,9.756,0,0,0-.27-2.489,4.356,4.356,0,0,0-.75-1.6,2.631,2.631,0,0,0-1.155-.87,4.082,4.082,0,0,0-1.455-.255,4.236,4.236,0,0,0-1.387.21,2.8,2.8,0,0,0-1.162.84,4.3,4.3,0,0,0-.787,1.6,9.475,9.475,0,0,0-.292,2.564,9.881,9.881,0,0,0,.255,2.392,4.2,4.2,0,0,0,.75,1.627,2.852,2.852,0,0,0,1.147.855,4.262,4.262,0,0,0,2.924.022A2.569,2.569,0,0,0,118.523,62.789Zm26.2,4.319h-5.413V58.755a19.682,19.682,0,0,0-.1-2.032,4.28,4.28,0,0,0-.36-1.492,1.8,1.8,0,0,0-.877-.81,4.1,4.1,0,0,0-1.612-.255,4.921,4.921,0,0,0-1.492.24,8.016,8.016,0,0,0-1.642.765V67.108h-5.413V50.268h5.413v1.859a13.754,13.754,0,0,1,2.763-1.724,7.056,7.056,0,0,1,2.943-.6,5.646,5.646,0,0,1,4.261,1.59,6.6,6.6,0,0,1,1.535,4.754Z" transform="translate(134.615 10.893)" fill="#fbf7f3"/>
  </g>
</svg>
