<svg xmlns="http://www.w3.org/2000/svg" width="254.847" height="54.798" viewBox="0 0 254.847 54.798">
  <g id="Group_2606" data-name="Group 2606" transform="translate(-910.194 -13.346)">
    <g id="Group_2571" data-name="Group 2571" transform="translate(910.194 13.346)">
      <g id="Group_2566" data-name="Group 2566" transform="translate(0 0)">
        <path id="Path_1" data-name="Path 1" d="M20.361,6.257,23.973,0,34.215,5.914,30.6,12.169a1.478,1.478,0,0,0,1.559,2.192l6.921-1.336,2.24,11.613L34.4,25.973A13.3,13.3,0,0,1,20.361,6.257Z" transform="translate(6.86 0)" fill="#fbf7f3" fill-rule="evenodd"/>
        <path id="Path_2" data-name="Path 2" d="M20.963,40.826,17.35,47.083,7.107,41.17l3.613-6.257a1.479,1.479,0,0,0-1.56-2.192L2.24,34.056,0,22.444,6.921,21.11A13.3,13.3,0,0,1,20.963,40.826Z" transform="translate(0 7.715)" fill="#fbf7f3" fill-rule="evenodd"/>
        <path id="Path_3" data-name="Path 3" d="M21.19,6.257,17.579,0,7.336,5.914l3.613,6.255a1.479,1.479,0,0,1-1.56,2.192L2.467,13.025.23,24.638l6.92,1.334A13.3,13.3,0,0,0,21.192,6.257Z" transform="translate(-0.23 0)" fill="#fbf7f3" fill-rule="evenodd"/>
        <path id="Path_4" data-name="Path 4" d="M20.141,40.826l3.61,6.257L33.994,41.17l-3.613-6.257a1.479,1.479,0,0,1,1.56-2.192l6.92,1.334L41.1,22.444,34.18,21.11A13.3,13.3,0,0,0,20.139,40.826Z" transform="translate(6.778 7.715)" fill="#fbf7f3" fill-rule="evenodd"/>
      </g>
    </g>
    <path id="Path_30753" data-name="Path 30753" d="M23.428,32.876a6.646,6.646,0,0,1-2.918,5.593,13.083,13.083,0,0,1-7.924,2.151,22.123,22.123,0,0,1-5.045-.508,26.021,26.021,0,0,1-4.028-1.291V33.236H4.17A13.917,13.917,0,0,0,8.339,35.52a13.555,13.555,0,0,0,4.435.8,14.389,14.389,0,0,0,1.439-.094,5.752,5.752,0,0,0,1.455-.313,3.622,3.622,0,0,0,1.134-.7,1.644,1.644,0,0,0,.446-1.252,1.688,1.688,0,0,0-.649-1.322,4.512,4.512,0,0,0-1.9-.853q-1.314-.313-2.777-.587a21.317,21.317,0,0,1-2.746-.7,8.623,8.623,0,0,1-4.232-2.589,6.348,6.348,0,0,1-1.291-4.06,6.247,6.247,0,0,1,2.918-5.311,12.725,12.725,0,0,1,7.5-2.057,23.273,23.273,0,0,1,4.545.446A21.24,21.24,0,0,1,22.5,18.046v5.366h-.641a12.384,12.384,0,0,0-3.45-1.885,11.88,11.88,0,0,0-4.169-.759,11.007,11.007,0,0,0-1.494.1,5.866,5.866,0,0,0-1.431.383,2.737,2.737,0,0,0-1.048.712,1.563,1.563,0,0,0-.438,1.087,1.623,1.623,0,0,0,.7,1.416,7.886,7.886,0,0,0,2.66.9q1.283.266,2.464.516a25.818,25.818,0,0,1,2.542.688,8.5,8.5,0,0,1,3.95,2.386A5.866,5.866,0,0,1,23.428,32.876ZM43.11,27.745V40.2H37.462V31.422q0-1.283-.063-2.182a3.894,3.894,0,0,0-.344-1.463,1.719,1.719,0,0,0-.853-.821,4,4,0,0,0-1.6-.258,4.04,4.04,0,0,0-1.611.336,11.794,11.794,0,0,0-1.408.712V40.2H25.932V22.629H31.58v1.94a15.419,15.419,0,0,1,2.781-1.783,6.665,6.665,0,0,1,2.937-.641,5.967,5.967,0,0,1,3.062.774A5.289,5.289,0,0,1,42.439,25.2a17.477,17.477,0,0,1,3.281-2.237,6.84,6.84,0,0,1,3.124-.814,5.4,5.4,0,0,1,4.319,1.705,7.292,7.292,0,0,1,1.476,4.912V40.2H48.992V31.422q0-1.3-.055-2.19a3.786,3.786,0,0,0-.336-1.455,1.644,1.644,0,0,0-.845-.821,4.105,4.105,0,0,0-1.627-.258,4.031,4.031,0,0,0-1.377.242A10.545,10.545,0,0,0,43.11,27.745Zm26.1,7.857V31.953q-1.142.094-2.472.257a11.921,11.921,0,0,0-2.018.382,2.78,2.78,0,0,0-1.291.772,1.945,1.945,0,0,0-.446,1.333,3.459,3.459,0,0,0,.094.889,1.336,1.336,0,0,0,.469.655,2.283,2.283,0,0,0,.86.46,6,6,0,0,0,1.564.148,4.638,4.638,0,0,0,1.713-.343A5.354,5.354,0,0,0,69.206,35.6Zm0,2.734q-.454.344-1.126.829a8.2,8.2,0,0,1-1.267.767,7.988,7.988,0,0,1-1.721.555,9.9,9.9,0,0,1-1.956.18,5.971,5.971,0,0,1-4.193-1.549,5.131,5.131,0,0,1-1.69-3.958,5.335,5.335,0,0,1,.86-3.145,5.773,5.773,0,0,1,2.441-1.924,13.8,13.8,0,0,1,3.88-1q2.315-.3,4.8-.438v-.094a2.024,2.024,0,0,0-1.189-2.01,8.6,8.6,0,0,0-3.5-.555,10,10,0,0,0-2.972.493q-1.58.493-2.268.759h-.516V23q.892-.235,2.9-.555a25.531,25.531,0,0,1,4.028-.321q4.8,0,6.938,1.478a5.247,5.247,0,0,1,2.135,4.639V40.2H69.206ZM91.422,28h-.5a5.043,5.043,0,0,0-1.155-.188q-.8-.063-1.327-.063a12.8,12.8,0,0,0-2.123.156,12.02,12.02,0,0,0-1.982.532V40.2H78.687V22.629h5.648v2.581a11.727,11.727,0,0,1,3.231-2.12,7.145,7.145,0,0,1,2.529-.524q.3,0,.671.016t.656.047Zm13.142,12.048a15.976,15.976,0,0,1-1.924.366,19.693,19.693,0,0,1-2.487.132,7.547,7.547,0,0,1-4.889-1.33q-1.6-1.33-1.6-4.552V26.447H91.345V22.629H93.66V17.608h5.648v5.022h5.257v3.817H99.308v6.236q0,.924.016,1.614a3.323,3.323,0,0,0,.25,1.238,1.733,1.733,0,0,0,.772.869,3.27,3.27,0,0,0,1.614.321,6.431,6.431,0,0,0,2.137-.532h.468Zm31.291-15.787a8.823,8.823,0,0,1-.548,3.058,6.8,6.8,0,0,1-1.564,2.511,9.565,9.565,0,0,1-3.105,2.081,11.263,11.263,0,0,1-4.263.7h-3.739V40.2h-6.007V16.9h9.887a15.626,15.626,0,0,1,3.747.383,8.824,8.824,0,0,1,2.7,1.15,6.186,6.186,0,0,1,2.151,2.362A7.454,7.454,0,0,1,135.856,24.256Zm-6.211.134a2.745,2.745,0,0,0-.532-1.694,2.886,2.886,0,0,0-1.236-.991,5.586,5.586,0,0,0-1.83-.414q-.892-.039-2.378-.039h-1.033v6.962h1.721a14.03,14.03,0,0,0,2.527-.187,3.582,3.582,0,0,0,1.666-.749,2.886,2.886,0,0,0,.837-1.194A4.884,4.884,0,0,0,129.645,24.39ZM144.164,40.2h-5.648V15.855h5.648Zm14.66-4.6V31.953q-1.142.094-2.472.257a11.92,11.92,0,0,0-2.018.382,2.78,2.78,0,0,0-1.291.772A1.945,1.945,0,0,0,152.6,34.7a3.459,3.459,0,0,0,.094.889,1.336,1.336,0,0,0,.469.655,2.283,2.283,0,0,0,.86.46,6,6,0,0,0,1.564.148,4.638,4.638,0,0,0,1.713-.343A5.355,5.355,0,0,0,158.824,35.6Zm0,2.734q-.454.344-1.126.829a8.2,8.2,0,0,1-1.267.767,7.988,7.988,0,0,1-1.721.555,9.9,9.9,0,0,1-1.956.18,5.971,5.971,0,0,1-4.193-1.549,5.131,5.131,0,0,1-1.69-3.958,5.335,5.335,0,0,1,.86-3.145,5.773,5.773,0,0,1,2.441-1.924,13.8,13.8,0,0,1,3.88-1q2.315-.3,4.8-.438v-.094a2.024,2.024,0,0,0-1.189-2.01,8.6,8.6,0,0,0-3.5-.555,10,10,0,0,0-2.972.493q-1.58.493-2.268.759H148.4V23q.892-.235,2.9-.555a25.532,25.532,0,0,1,4.028-.321q4.8,0,6.938,1.478a5.247,5.247,0,0,1,2.135,4.639V40.2h-5.585Zm20.714,1.707a15.976,15.976,0,0,1-1.924.366,19.694,19.694,0,0,1-2.487.132,7.547,7.547,0,0,1-4.889-1.33q-1.6-1.33-1.6-4.552V26.447h-2.315V22.629h2.315V17.608h5.648v5.022h5.257v3.817h-5.257v6.236q0,.924.016,1.614a3.323,3.323,0,0,0,.25,1.238,1.733,1.733,0,0,0,.772.869,3.269,3.269,0,0,0,1.614.321,6.431,6.431,0,0,0,2.137-.532h.468Zm19.385-7.589H186.032a4.052,4.052,0,0,0,1.572,3.16,6.994,6.994,0,0,0,4.263,1.1,9.584,9.584,0,0,0,3.457-.641,10.828,10.828,0,0,0,2.644-1.377h.626v4.521a20.917,20.917,0,0,1-3.6,1.111,18.774,18.774,0,0,1-3.739.344q-5.288,0-8.1-2.378a8.375,8.375,0,0,1-2.816-6.774A9.069,9.069,0,0,1,183,24.624a10.166,10.166,0,0,1,7.314-2.542q4.287,0,6.445,2.167a8.457,8.457,0,0,1,2.159,6.234Zm-5.6-3.3a3.942,3.942,0,0,0-.876-2.66,3.368,3.368,0,0,0-2.581-.892,4.128,4.128,0,0,0-2.675.845,3.6,3.6,0,0,0-1.173,2.706ZM25.962,69.325H20.174L10.287,53.336V69.325H4.78V46.031h7.181l8.495,13.345V46.031h5.507Zm21.856,0H42.171v-1.94a16.726,16.726,0,0,1-2.859,1.807,7.133,7.133,0,0,1-3.093.618,5.839,5.839,0,0,1-4.476-1.674,6.979,6.979,0,0,1-1.57-4.944V51.756h5.648V60.47q0,1.33.086,2.214a3.857,3.857,0,0,0,.4,1.463,1.8,1.8,0,0,0,.9.845,4.273,4.273,0,0,0,1.682.266,5.539,5.539,0,0,0,1.6-.266,6.869,6.869,0,0,0,1.69-.782V51.756h5.648Zm15.27-.155a15.976,15.976,0,0,1-1.924.366,19.7,19.7,0,0,1-2.487.132,7.547,7.547,0,0,1-4.889-1.33q-1.6-1.33-1.6-4.552V55.574H49.869V51.756h2.315V46.735h5.648v5.022h5.256v3.817H57.832V61.81q0,.924.016,1.614a3.323,3.323,0,0,0,.25,1.238,1.733,1.733,0,0,0,.772.869,3.27,3.27,0,0,0,1.614.321,6.431,6.431,0,0,0,2.137-.532h.468ZM77.905,57.122h-.5a5.043,5.043,0,0,0-1.155-.188q-.8-.063-1.327-.063a12.8,12.8,0,0,0-2.123.156,12.019,12.019,0,0,0-1.982.532V69.325H65.171V51.756h5.648v2.581a11.728,11.728,0,0,1,3.231-2.12,7.145,7.145,0,0,1,2.529-.524q.3,0,.671.016t.656.047Zm7.557,12.2H79.815V51.756h5.648Zm.156-20.072h-5.96V44.982h5.96Zm15.1,19.917a15.976,15.976,0,0,1-1.924.366,19.7,19.7,0,0,1-2.487.132,7.547,7.547,0,0,1-4.889-1.33q-1.6-1.33-1.6-4.552V55.574H87.5V51.756h2.315V46.735h5.648v5.022h5.256v3.817H95.461V61.81q0,.924.016,1.614a3.323,3.323,0,0,0,.25,1.238,1.733,1.733,0,0,0,.772.869,3.27,3.27,0,0,0,1.614.321,6.431,6.431,0,0,0,2.137-.532h.468Zm7.73.155H102.8V51.756h5.648Zm.156-20.072h-5.96V44.982h5.96Zm21.825,11.3a9.163,9.163,0,0,1-2.527,6.829,11.334,11.334,0,0,1-14.189,0,9.163,9.163,0,0,1-2.527-6.829,9.146,9.146,0,0,1,2.542-6.852,9.691,9.691,0,0,1,7.079-2.487q4.6,0,7.11,2.5A9.222,9.222,0,0,1,130.428,60.548Zm-6.93,4.271a4.52,4.52,0,0,0,.821-1.619,9.848,9.848,0,0,0,.274-2.62,10.178,10.178,0,0,0-.282-2.6,4.545,4.545,0,0,0-.782-1.674,2.745,2.745,0,0,0-1.2-.907,4.259,4.259,0,0,0-1.518-.266,4.419,4.419,0,0,0-1.447.219,2.924,2.924,0,0,0-1.212.876,4.481,4.481,0,0,0-.821,1.674,9.885,9.885,0,0,0-.305,2.675,10.308,10.308,0,0,0,.266,2.5,4.385,4.385,0,0,0,.782,1.7,2.976,2.976,0,0,0,1.2.892,4.446,4.446,0,0,0,3.051.023A2.68,2.68,0,0,0,123.5,64.819Zm27.332,4.506h-5.648V60.611a20.535,20.535,0,0,0-.11-2.12,4.466,4.466,0,0,0-.375-1.557,1.873,1.873,0,0,0-.915-.845,4.273,4.273,0,0,0-1.682-.266,5.134,5.134,0,0,0-1.557.25,8.362,8.362,0,0,0-1.713.8V69.325h-5.648V51.756h5.648V53.7a14.349,14.349,0,0,1,2.883-1.8,7.361,7.361,0,0,1,3.07-.626,5.89,5.89,0,0,1,4.445,1.658,6.882,6.882,0,0,1,1.6,4.959Z" transform="translate(966.118 -1.729)" fill="#fbf7f3"/>
  </g>
</svg>
