<svg id="Layer_x0020_1_1_" xmlns="http://www.w3.org/2000/svg" width="21.452" height="21.451" viewBox="0 0 21.452 21.451">
  <path id="Path_30777" data-name="Path 30777" d="M6.554,21.654c2.719,2.361,5.7,4.556,9.7,4.557.078,0,.156,0,.237,0a15.786,15.786,0,0,0,7.669-2.325l.013-.009a7.72,7.72,0,0,0,.862-.6.68.68,0,0,0,.291-.532.64.64,0,0,0-.657-.618.717.717,0,0,0-.318.073c-.114.045-.233.1-.343.145l-.164.069-.211.085h0a20.078,20.078,0,0,1-6.956,1.531c-.082,0-.164,0-.246,0-3.518,0-6.389-1.631-9.284-3.24a.662.662,0,0,0-.306-.081.533.533,0,0,0-.362.14.491.491,0,0,0-.154.359.571.571,0,0,0,.224.441Z" transform="translate(-6.33 -4.76)" fill="#fbf7f3"/>
  <path id="Path_30778" data-name="Path 30778" d="M26.115,20.9a1,1,0,0,0-.15-.535l-.009-.014-.011-.014a.751.751,0,0,0-.285-.186,3.627,3.627,0,0,0-1.234-.174,5.667,5.667,0,0,0-1.189.124v-.027l-.411.136-.007,0-.233.075v.01a3.739,3.739,0,0,0-.753.421.594.594,0,0,0-.271.468.442.442,0,0,0,.157.337.5.5,0,0,0,.317.108.439.439,0,0,0,.069,0h.018l.017,0c.2-.043.5-.071.84-.12a8.471,8.471,0,0,1,.878-.058,2.483,2.483,0,0,1,.484.039.565.565,0,0,1,.129.041.043.043,0,0,1,.018.009.415.415,0,0,1,.011.119,4.076,4.076,0,0,1-.224,1.059c-.129.411-.286.824-.389,1.1a.554.554,0,0,0-.039.209.455.455,0,0,0,.138.333.463.463,0,0,0,.314.124h0a.65.65,0,0,0,.393-.15A4.849,4.849,0,0,0,26.12,21.04l0-.136Z" transform="translate(-4.669 -4.84)" fill="#fbf7f3"/>
  <path id="Path_30779" data-name="Path 30779" d="M17.827,12.3c-.616.047-1.326.093-2.036.187a10.512,10.512,0,0,0-3.077.76,4.551,4.551,0,0,0-2.936,4.451,3.866,3.866,0,0,0,4.073,4.216,7.864,7.864,0,0,0,1.94-.236,5.922,5.922,0,0,0,2.558-1.753,7.4,7.4,0,0,0,1.562,1.8.669.669,0,0,0,.662-.045c.57-.475,1.563-1.328,2.082-1.8a.51.51,0,0,0,.047-.709,3.545,3.545,0,0,1-1.04-2.512V12.391c0-1.8.142-3.458-1.182-4.688a6.362,6.362,0,0,0-4.118-1.374h-.568c-2.413.141-4.97,1.183-5.539,4.168a.443.443,0,0,0,.379.567l2.65.332a.6.6,0,0,0,.474-.52,2.164,2.164,0,0,1,2.036-1.658h.191a1.862,1.862,0,0,1,1.514.711,3.562,3.562,0,0,1,.333,1.99Zm-.52,5.634a2.3,2.3,0,0,1-1.515,1.232c-.1,0-.236.045-.379.045-1.04,0-1.656-.806-1.656-1.989a2.492,2.492,0,0,1,2.036-2.559,9.369,9.369,0,0,1,2.036-.191v.569a5.058,5.058,0,0,1-.522,2.891Z" transform="translate(-5.954 -6.329)" fill="#fbf7f3"/>
</svg>
