<svg xmlns="http://www.w3.org/2000/svg" width="22.146" height="22.144" viewBox="0 0 22.146 22.144">
  <path id="Icon_ionic-ios-call" data-name="Icon ionic-ios-call" d="M26,21.842a18.6,18.6,0,0,0-3.886-2.6c-1.165-.559-1.591-.548-2.416.046-.686.5-1.13.957-1.92.784a11.452,11.452,0,0,1-3.857-2.854,11.37,11.37,0,0,1-2.854-3.857c-.167-.8.294-1.234.784-1.92.594-.824.611-1.251.046-2.416a18.233,18.233,0,0,0-2.6-3.886c-.847-.847-1.038-.663-1.5-.5a8.562,8.562,0,0,0-1.378.732A4.157,4.157,0,0,0,4.758,7.124c-.329.709-.709,2.029,1.228,5.477a30.56,30.56,0,0,0,5.373,7.166h0l.006.006.006.006h0a30.68,30.68,0,0,0,7.166,5.373c3.448,1.937,4.768,1.557,5.477,1.228a4.086,4.086,0,0,0,1.747-1.655,8.562,8.562,0,0,0,.732-1.378C26.659,22.88,26.849,22.689,26,21.842Z" transform="translate(-4.49 -4.503)" fill="#fbf7f3"/>
</svg>
