<svg xmlns="http://www.w3.org/2000/svg" width="25" height="30" viewBox="0 0 25.409 30.602">
  <g id="Layer_2_00000180361503736565362110000009434752261666514817_" transform="translate(-44.844 0.25)">
    <g id="Layer_2_copy_5" transform="translate(45.22 0)">
      <g id="_113" transform="translate(0)">
        <path id="Path_30753" data-name="Path 30753" d="M69.738,25.753l-3.251-7.371a11.334,11.334,0,1,0-17.747.006l-3.257,7.366A3.092,3.092,0,0,0,49.628,29.8l7.983-3.756L65.593,29.8A3.083,3.083,0,0,0,70,26.987,3.188,3.188,0,0,0,69.738,25.753Zm-21.9-14.414a9.776,9.776,0,1,1,9.776,9.776A9.787,9.787,0,0,1,47.835,11.339ZM67.974,28.1a1.5,1.5,0,0,1-1.722.288L57.94,24.471a.773.773,0,0,0-.664,0l-8.312,3.915a1.53,1.53,0,0,1-2.052-2l2.98-6.748a11.312,11.312,0,0,0,15.436,0l2.98,6.754A1.494,1.494,0,0,1,67.974,28.1Z" transform="translate(-45.22 0)" fill="#27472c" stroke="#fff" stroke-width="0.5"/>
        <path id="Path_30754" data-name="Path 30754" d="M123.947,69.089a8.244,8.244,0,1,0-8.247-8.241A8.258,8.258,0,0,0,123.947,69.089Zm0-14.931a6.684,6.684,0,1,1-6.684,6.684A6.683,6.683,0,0,1,123.947,54.158Z" transform="translate(-111.557 -49.508)" fill="#27472c" stroke="#fff" stroke-width="0.5"/>
        <path id="Path_30755" data-name="Path 30755" d="M174.41,139.778a.828.828,0,0,0,.582-.241l5.155-5.155a.823.823,0,0,0-1.164-1.164l-4.573,4.573-1.828-1.828a.823.823,0,1,0-1.164,1.164l2.41,2.41A.828.828,0,0,0,174.41,139.778Z" transform="translate(-163.771 -125.158)" fill="#27472c" stroke="#fff" stroke-width="0.5"/>
      </g>
    </g>
  </g>
</svg>
