<svg xmlns="http://www.w3.org/2000/svg" width="30" height="28" viewBox="0 0 29.348 28.446">
  <path id="customer-service" d="M29.332,15.693v-3.06A10.18,10.18,0,0,0,19.164,2.465H13.685A10.112,10.112,0,0,0,7.973,4.221.473.473,0,1,0,8.506,5a9.17,9.17,0,0,1,5.18-1.592h5.478a9.232,9.232,0,0,1,9.221,9.221v2.536a4.324,4.324,0,0,0-.626-.2,1.723,1.723,0,0,0-.952.05V12.633A7.652,7.652,0,0,0,19.164,4.99H13.685a7.652,7.652,0,0,0-7.644,7.643v2.383a1.728,1.728,0,0,0-.952-.051,4.323,4.323,0,0,0-.626.2V12.633a9.172,9.172,0,0,1,1.57-5.147.474.474,0,0,0-.785-.529,10.12,10.12,0,0,0-1.732,5.677v3.06a4.34,4.34,0,0,0-1.65,4.486l.546,2.313a4.338,4.338,0,0,0,4.21,3.34,4.369,4.369,0,0,0,1-.117,1.727,1.727,0,0,0,1.1-.828,1.7,1.7,0,0,0,1.355.249h0a1.738,1.738,0,0,0,1.291-2.088L9.635,15.676a1.74,1.74,0,0,0-2.088-1.291,1.718,1.718,0,0,0-.558.248v-2a6.7,6.7,0,0,1,6.7-6.7h5.478a6.7,6.7,0,0,1,6.7,6.7v2a1.718,1.718,0,0,0-.558-.248,1.738,1.738,0,0,0-2.088,1.291l-1.739,7.372a1.738,1.738,0,0,0,1.291,2.088h0a1.7,1.7,0,0,0,1.355-.249,1.731,1.731,0,0,0,.622.626A3.234,3.234,0,0,1,21.514,28.7H18.879a1.732,1.732,0,0,0-1.662-1.262H15.632a1.736,1.736,0,1,0,0,3.471h1.585a1.732,1.732,0,0,0,1.662-1.262h2.635A4.183,4.183,0,0,0,25.677,25.8a4.33,4.33,0,0,0,4.759-3.3l.546-2.313a4.34,4.34,0,0,0-1.65-4.486Zm-21.923,9.1a3.387,3.387,0,0,1-4.075-2.519l-.546-2.313a3.391,3.391,0,0,1,2.519-4.075.78.78,0,0,1,.181-.021.791.791,0,0,1,.768.608L8,23.845a.79.79,0,0,1-.587.949ZM7.275,15.66a.783.783,0,0,1,.49-.353.788.788,0,0,1,.949.587l1.739,7.371a.789.789,0,1,1-1.536.363L7.178,16.256a.783.783,0,0,1,.1-.6Zm9.942,14.3H15.632a.789.789,0,1,1,0-1.578h1.585a.789.789,0,1,1,0,1.578Zm5.766-5.75a.79.79,0,0,1-.586-.949l1.739-7.371a.789.789,0,0,1,1.536.362l-1.739,7.371a.79.79,0,0,1-.949.587Zm7.078-4.253-.546,2.313a3.387,3.387,0,0,1-4.075,2.519.79.79,0,0,1-.587-.949l1.739-7.371a.79.79,0,0,1,.949-.587,3.391,3.391,0,0,1,2.519,4.075ZM6.282,5.87a.473.473,0,0,1,.947,0,.473.473,0,0,1-.947,0Z" transform="translate(-1.751 -2.465)" fill="#27472c"/>
</svg>
