<svg xmlns="http://www.w3.org/2000/svg" width="67.825" height="65.741" viewBox="0 0 67.825 65.741">
  <path id="customer-service" d="M65.493,33.035V25.964a23.526,23.526,0,0,0-23.5-23.5H29.333a23.371,23.371,0,0,0-13.2,4.058,1.094,1.094,0,0,0,1.231,1.809A21.192,21.192,0,0,1,29.333,4.653H41.994A21.336,21.336,0,0,1,63.305,25.964v5.861a9.992,9.992,0,0,0-1.446-.472,3.982,3.982,0,0,0-2.2.116V25.964A17.685,17.685,0,0,0,41.994,8.3H29.333A17.685,17.685,0,0,0,11.668,25.964v5.507a3.993,3.993,0,0,0-2.2-.118,9.992,9.992,0,0,0-1.446.472V25.964a21.2,21.2,0,0,1,3.63-11.9,1.094,1.094,0,1,0-1.815-1.224,23.387,23.387,0,0,0-4,13.119v7.071A10.031,10.031,0,0,0,2.019,43.4l1.261,5.346a10.026,10.026,0,0,0,9.731,7.72A10.1,10.1,0,0,0,15.33,56.2a3.991,3.991,0,0,0,2.547-1.915,3.94,3.94,0,0,0,3.131.575h0a4.018,4.018,0,0,0,2.983-4.826L19.972,33a4.02,4.02,0,0,0-4.825-2.983,3.971,3.971,0,0,0-1.291.574V25.964A15.494,15.494,0,0,1,29.333,10.488H41.994A15.494,15.494,0,0,1,57.471,25.964v4.623a3.971,3.971,0,0,0-1.291-.574A4.017,4.017,0,0,0,51.355,33l-4.02,17.037a4.017,4.017,0,0,0,2.983,4.825h0a3.94,3.94,0,0,0,3.131-.575,4,4,0,0,0,1.438,1.447,7.474,7.474,0,0,1-7.461,7.37H41.335a4,4,0,0,0-3.841-2.917H33.832a4.011,4.011,0,0,0,0,8.023h3.662a4,4,0,0,0,3.841-2.917h6.091a9.666,9.666,0,0,0,9.621-8.906,10.007,10.007,0,0,0,11-7.633L69.307,43.4a10.031,10.031,0,0,0-3.814-10.368ZM14.828,54.068a7.828,7.828,0,0,1-9.417-5.822L4.149,42.9A7.837,7.837,0,0,1,9.97,33.483a1.8,1.8,0,0,1,.419-.049,1.828,1.828,0,0,1,1.775,1.405l4.02,17.036a1.825,1.825,0,0,1-1.356,2.193Zm-.311-21.109a1.81,1.81,0,0,1,1.132-.816A1.821,1.821,0,0,1,17.843,33.5l4.02,17.035a1.823,1.823,0,1,1-3.549.838l-4.02-17.036a1.81,1.81,0,0,1,.224-1.377ZM37.495,66.018H33.832a1.823,1.823,0,0,1,0-3.647h3.662a1.823,1.823,0,0,1,0,3.647ZM50.82,52.728a1.827,1.827,0,0,1-1.355-2.194L53.484,33.5a1.823,1.823,0,0,1,3.549.838l-4.02,17.036a1.825,1.825,0,0,1-2.194,1.356ZM67.178,42.9l-1.261,5.346A7.828,7.828,0,0,1,56.5,54.068a1.825,1.825,0,0,1-1.356-2.193l4.02-17.036a1.825,1.825,0,0,1,2.194-1.356A7.837,7.837,0,0,1,67.178,42.9ZM12.222,10.334a1.094,1.094,0,1,1,2.188,0,1.094,1.094,0,0,1-2.188,0Z" transform="translate(-1.751 -2.465)" fill="#fbf7f3"/>
</svg>
