<svg xmlns="http://www.w3.org/2000/svg" width="39.001" height="18.111" viewBox="0 0 39.001 18.111">
  <g id="Group_2609" data-name="Group 2609" transform="translate(-360.999 -31.268)">
    <path id="menu" d="M9.75,78.094c0-.714.873-1.294,1.95-1.294H37.051c1.077,0,1.95.579,1.95,1.294s-.873,1.294-1.95,1.294H11.7C10.623,79.387,9.75,78.808,9.75,78.094Zm27.3,6.468H1.95c-1.077,0-1.95.579-1.95,1.294s.873,1.294,1.95,1.294h35.1c1.077,0,1.95-.579,1.95-1.294S38.128,84.562,37.051,84.562Zm0,7.762H19.5c-1.077,0-1.95.579-1.95,1.294s.873,1.294,1.95,1.294H37.051c1.077,0,1.95-.579,1.95-1.294S38.128,92.324,37.051,92.324Z" transform="translate(360.999 -45.532)" fill="#fbf7f3"/>
  </g>
</svg>
