<svg xmlns="http://www.w3.org/2000/svg" width="91.146" height="70.316" viewBox="0 0 91.146 70.316">
  <g id="healthy" transform="translate(-11 -66.978)">
    <path id="Path_30748" data-name="Path 30748" d="M93.782,102.891A32.6,32.6,0,0,1,93.8,91.083c1.892-10,8.377-16.72,16.987-17.905a21.532,21.532,0,0,0-2.808-.188c-9.974,0-17.669,7.046-19.76,18.093a32.6,32.6,0,0,0-.019,11.808c2.459,13.917,13.644,28.939,36.4,37.99a2.454,2.454,0,0,0,1.9,0c.616-.25,1.221-.506,1.82-.765C106.816,131,96.173,116.423,93.782,102.891Z" transform="translate(-62.41 -4.894)" fill="#bf7146"/>
    <g id="Group_2558" data-name="Group 2558" transform="translate(24.148 66.978)">
      <path id="Path_30749" data-name="Path 30749" d="M394.141,123.464a1.116,1.116,0,0,0,1.434-.658,30.675,30.675,0,0,0,1.588-16.439c-1.912-9.466-8.33-15.346-16.751-15.346a1.116,1.116,0,1,0,0,2.232c7.294,0,12.874,5.194,14.561,13.547a28.44,28.44,0,0,1-1.491,15.23A1.116,1.116,0,0,0,394.141,123.464Z" transform="translate(-323.939 -86.549)" fill="#fff"/>
      <path id="Path_30750" data-name="Path 30750" d="M438.1,279.434a1.116,1.116,0,0,0-1.513.45c-.486.9-1.019,1.793-1.585,2.666a1.116,1.116,0,0,0,1.872,1.215c.6-.922,1.162-1.87,1.676-2.818A1.116,1.116,0,0,0,438.1,279.434Z" transform="translate(-369.138 -239.806)" fill="#fff"/>
      <path id="Path_30751" data-name="Path 30751" d="M159.108,85.946c-2.3-11.419-10.521-18.786-20.948-18.786-5.555,0-11.581,2.184-17.47,6.313-5.972-4.313-11.884-6.5-17.583-6.5-10.485,0-18.672,7.459-20.855,19-3.214,16.793,7,39.089,37.067,51.047l.059.022a3.549,3.549,0,0,0,2.609,0l.069-.026c13.805-5.607,24.51-13.865,30.957-23.8a41.93,41.93,0,0,0,5.771-13.44,1.114,1.114,0,0,0-1.084-1.366h-.005a1.108,1.108,0,0,0-1.082.861,39.354,39.354,0,0,1-5.472,12.729c-6.193,9.54-16.53,17.476-29.9,22.91a2.515,2.515,0,0,1-.565.134,2.18,2.18,0,0,1-.568-.118C91.255,123.444,81.4,102.28,84.444,86.393a22.41,22.41,0,0,1,6.58-12.571,17.573,17.573,0,0,1,12.083-4.61c5.416,0,11.1,2.2,16.906,6.539a1.116,1.116,0,0,0,1.325.009C127.053,71.6,132.87,69.4,138.16,69.4a17.719,17.719,0,0,1,12.1,4.591,22.33,22.33,0,0,1,6.66,12.367,29.955,29.955,0,0,1,.532,5.722,1.116,1.116,0,0,0,1.112,1.126h.007a1.11,1.11,0,0,0,1.113-1.1,31.908,31.908,0,0,0-.574-6.175s0,.016,0,.013Z" transform="translate(-81.685 -66.978)" fill="#fff"/>
    </g>
    <path id="Path_30752" data-name="Path 30752" d="M26.509,173.442l6.632-11.368L43.2,186.231a1.116,1.116,0,0,0,.951.684l.079,0a1.116,1.116,0,0,0,.959-.545l10.593-17.81,6.444,11.916a1.116,1.116,0,0,0,.982.585h7.786a4.561,4.561,0,1,0-.071-2.232h-7.05l-7.063-13.061a1.116,1.116,0,0,0-1.941-.04L44.407,183.322l-10.069-24.18a1.116,1.116,0,0,0-1.994-.133L24.9,171.763H12.116a1.116,1.116,0,0,0,0,2.232h13.43a1.116,1.116,0,0,0,.963-.554Zm48.862,4.037a2.329,2.329,0,1,1-2.321,2.329A2.329,2.329,0,0,1,75.371,177.479Z" transform="translate(0 -74.462)" fill="#bf7146"/>
  </g>
</svg>
