<svg xmlns="http://www.w3.org/2000/svg" width="82.161" height="60.137" viewBox="0 0 82.161 60.137">
  <g id="heart_1_" data-name="heart (1)" transform="translate(0 -56.4)">
    <g id="Group_104" data-name="Group 104" transform="translate(0 56.4)">
      <path id="Path_277" data-name="Path 277" d="M80.755,85.219H73.8c2.89-6.56,2.577-11.871,1.484-15.464-1.874-6.4-8.2-13.355-17.573-13.355a21.971,21.971,0,0,0-7.576,1.406,39.293,39.293,0,0,0-8.747,4.374,37.5,37.5,0,0,0-8.747-4.374A22.307,22.307,0,0,0,25.07,56.4C15.7,56.4,9.372,63.351,7.5,69.755,6.4,73.582,6.014,79.361,9.684,86.625H1.25a1.25,1.25,0,1,0,0,2.5h9.919a16.486,16.486,0,0,0,1.406,2.109c8.122,11.715,25.773,24.445,28.975,25.226v.078a.242.242,0,0,0,.156-.078h.234v-.078c2.734-1.328,19.681-12.262,28.585-25.226a28.731,28.731,0,0,0,2.187-3.514h8.2a1.234,1.234,0,0,0,1.25-1.25A1.312,1.312,0,0,0,80.755,85.219Zm-12.5,4.608c-8.279,12.105-23.508,21.868-26.788,23.977-3.358-2.109-18.51-11.949-26.866-23.977l-.469-.7H25.617a1.288,1.288,0,0,0,1.171-.7l5.233-10.309,8.2,21.009a1.279,1.279,0,0,0,1.172.781h.078a1.244,1.244,0,0,0,1.171-.937l7.185-24.6,3.827,12.418a1.273,1.273,0,0,0,1.015.859,1.352,1.352,0,0,0,1.25-.547l3.046-4.452,2.577,4.374a1.246,1.246,0,0,0,1.093.625h7.029C69.2,88.421,68.728,89.124,68.259,89.827Zm2.812-4.608H63.417l-3.2-5.467a1.246,1.246,0,0,0-1.093-.625,1.182,1.182,0,0,0-1.093.547l-2.655,3.9-4.3-13.98a1.449,1.449,0,0,0-1.25-.937,1.337,1.337,0,0,0-1.25.937l-7.263,25.07-7.888-20.15a1.175,1.175,0,0,0-1.093-.781,1.211,1.211,0,0,0-1.172.7l-6.17,12.106H12.574C9.45,80.845,8.591,75.378,10,70.458A15.956,15.956,0,0,1,25.148,58.977a20.776,20.776,0,0,1,6.717,1.25,37.968,37.968,0,0,1,8.825,4.53,1.188,1.188,0,0,0,1.562,0,34.05,34.05,0,0,1,8.825-4.53,18.881,18.881,0,0,1,6.717-1.25A16.033,16.033,0,0,1,72.945,70.458C74.273,74.988,73.57,79.986,71.071,85.219Z" transform="translate(0 -56.4)" fill="#fff"/>
    </g>
  </g>
</svg>
