<svg xmlns="http://www.w3.org/2000/svg" width="63.146" height="55.625" viewBox="0 0 63.146 55.625">
  <path id="heart" d="M164.337,189.771a1.728,1.728,0,0,1-.594-.1,97.858,97.858,0,0,1-14.954-6.775,66.653,66.653,0,0,1-14.74,4.612,47.96,47.96,0,0,1-13.147.808,1.785,1.785,0,0,1,.452-3.542,45.226,45.226,0,0,0,12.22-.785,62.544,62.544,0,0,0,11.459-3.352c-15.691-10.128-21.467-22.395-21.23-31.357.19-6.68,3.661-11.863,9.081-13.48a12.644,12.644,0,0,1,10.413,1.046c4.374,2.544,7.037,7.489,8.487,11.126a30.336,30.336,0,0,1,3.281-4.9c4.9-5.943,11.007-8.2,17.711-6.514,4.588,1.165,7.584,4.113,8.44,8.344.808,4.018-.357,8.82-3.352,13.931-3.114,5.278-8.131,10.6-14.478,15.429a73.326,73.326,0,0,1-10.627,6.752,94.177,94.177,0,0,0,12.2,5.325,1.781,1.781,0,0,1,1.07,2.282,1.809,1.809,0,0,1-1.688,1.141Zm-27.244-51.089a11.081,11.081,0,0,0-3.186.5c-3.97,1.189-6.419,4.992-6.561,10.175-.166,5.92,2.686,12.481,8.012,18.52A57.221,57.221,0,0,0,149,178.883a68.9,68.9,0,0,0,12.22-7.489c5.991-4.564,10.674-9.533,13.551-14.407,2.52-4.255,3.566-8.3,2.948-11.388-.594-2.877-2.544-4.755-5.825-5.587-5.3-1.355-10.009.428-14.026,5.254a28.938,28.938,0,0,0-4.683,8.2,1.82,1.82,0,0,1-1.783,1.212,1.776,1.776,0,0,1-1.64-1.379c-.024-.1-2.306-9.866-8.273-13.361a8.194,8.194,0,0,0-4.4-1.26Z" transform="translate(-118.831 -134.646)" fill="#fff" stroke="#fff" stroke-miterlimit="10" stroke-width="1"/>
</svg>
