<svg xmlns="http://www.w3.org/2000/svg" width="81.742" height="97.246" viewBox="0 0 81.742 97.246">
  <g id="Group_146" data-name="Group 146" transform="translate(-1217.977 -5689.254)">
    <rect id="Rectangle_36" data-name="Rectangle 36" width="20" height="20" rx="5" transform="matrix(0.914, 0.407, -0.407, 0.914, 1280.932, 5752.797)" fill="#bf7146"/>
    <g id="diabetes" transform="translate(1177.443 5689.878)">
      <path id="Path_283" data-name="Path 283" d="M72.94,213.723a1.4,1.4,0,0,1-.712-.194,33.926,33.926,0,0,1-6.428-4.892c-11.1-10.763-15.421-29.572-.035-47.329a1.408,1.408,0,0,1,2.128,1.844c-14.182,16.367-10.286,33.622-.133,43.463a31.108,31.108,0,0,0,5.893,4.485,1.408,1.408,0,0,1-.714,2.622Z" transform="translate(-11.962 -130.621)" fill="#fff" stroke="#312a2a" stroke-linecap="round" stroke-width="1"/>
      <path id="Path_284" data-name="Path 284" d="M182.361,446.347a34.835,34.835,0,0,1-11.626-1.995,1.408,1.408,0,0,1,.939-2.655,32.11,32.11,0,0,0,17.471,1.112,1.408,1.408,0,1,1,.592,2.753A35.1,35.1,0,0,1,182.361,446.347Z" transform="translate(-104.572 -358.703)" fill="#fff" stroke="#312a2a" stroke-linecap="round" stroke-width="1"/>
      <path id="Path_285" data-name="Path 285" d="M154.946,25.057a15.89,15.89,0,0,1-2.7-.231,4.214,4.214,0,0,1-.594-.147A1.408,1.408,0,0,1,152.527,22a1.4,1.4,0,0,0,.2.049,13.054,13.054,0,0,0,4.44,0,1.407,1.407,0,0,0,1.149-1.588,74.307,74.307,0,0,1-.681-10.162,1.408,1.408,0,0,1,1.079-1.309l.693-.166a1.5,1.5,0,0,0,1.17-1.143,1.368,1.368,0,0,0-.548-1.407l-4.057-3.1a1.689,1.689,0,0,0-2.049,0l-4.057,3.1a1.368,1.368,0,0,0-.548,1.407,1.5,1.5,0,0,0,1.169,1.143l.693.166a1.408,1.408,0,0,1,1.079,1.309,74.368,74.368,0,0,1-.65,10.023,1.408,1.408,0,0,1-2.785-.416,75.572,75.572,0,0,0,.626-8.452,4.291,4.291,0,0,1-2.888-3.189,4.2,4.2,0,0,1,1.591-4.229l4.057-3.1a4.511,4.511,0,0,1,5.471,0l4.057,3.1a4.2,4.2,0,0,1,1.591,4.229,4.291,4.291,0,0,1-2.888,3.189,77.857,77.857,0,0,0,.656,8.583,4.237,4.237,0,0,1-3.456,4.787A15.9,15.9,0,0,1,154.946,25.057Z" transform="translate(-85.624 0)" fill="#fff" stroke="#312a2a" stroke-linecap="round" stroke-width="1"/>
      <path id="Path_286" data-name="Path 286" d="M242.6,102.609a1.409,1.409,0,0,1-1.334-1.859c3.525-10.434.871-21.517-7.472-31.209l-16.463-19a7.644,7.644,0,0,0-9.377-1.561,1.408,1.408,0,0,1-1.366-2.463,10.481,10.481,0,0,1,12.862,2.169L235.925,67.7c9.022,10.48,11.865,22.536,8.009,33.951A1.409,1.409,0,0,1,242.6,102.609Z" transform="translate(-133.868 -36.716)" fill="#fff" stroke="#312a2a" stroke-linecap="round" stroke-width="1"/>
      <g id="Group_144" data-name="Group 144" transform="translate(61.063 43.834)">
        <path id="Path_287" data-name="Path 287" d="M214.157,258.8a1.406,1.406,0,0,1-1.157-.6,4.378,4.378,0,0,0-7.635,0,1.408,1.408,0,1,1-2.312-1.608,7.178,7.178,0,0,1,12.258,0,1.408,1.408,0,0,1-1.155,2.212Z" transform="translate(-192.443 -249.443)" fill="#fff" stroke="#312a2a" stroke-linecap="round" stroke-width="1"/>
        <path id="Path_288" data-name="Path 288" d="M152.233,237.717a5.65,5.65,0,0,1-4.26-1.94,1.408,1.408,0,1,1,2.123-1.85,2.832,2.832,0,0,0,4.275,0,1.408,1.408,0,1,1,2.123,1.85A5.65,5.65,0,0,1,152.233,237.717Z" transform="translate(-147.626 -233.444)" fill="#fff" stroke="#312a2a" stroke-linecap="round" stroke-width="1"/>
        <path id="Path_289" data-name="Path 289" d="M281.488,237.717a5.65,5.65,0,0,1-4.26-1.94,1.408,1.408,0,1,1,2.123-1.85,2.831,2.831,0,0,0,4.275,0,1.408,1.408,0,1,1,2.123,1.85A5.65,5.65,0,0,1,281.488,237.717Z" transform="translate(-252.616 -233.444)" fill="#fff" stroke="#312a2a" stroke-linecap="round" stroke-width="1"/>
      </g>
      <path id="Ellipse_35" data-name="Ellipse 35" d="M6.905,0c3.872,0,6.905,4.24,6.905,9.654s-3.033,9.654-6.905,9.654S0,15.067,0,9.654,3.033,0,6.905,0Zm0,16.492c2.217,0,4.089-3.131,4.089-6.838S9.122,2.816,6.905,2.816,2.816,5.947,2.816,9.654,4.689,16.492,6.905,16.492Z" transform="translate(54.725 67.387) rotate(-45)" fill="#fff" stroke="#312a2a" stroke-linecap="round" stroke-width="1"/>
      <path id="Path_290" data-name="Path 290" d="M283.918,408.05H273.98a7.048,7.048,0,0,1-7.04-7.04v-9.939a7.048,7.048,0,0,1,7.04-7.04h9.939a7.048,7.048,0,0,1,7.04,7.04v9.939A7.048,7.048,0,0,1,283.918,408.05Zm-9.939-21.2a4.229,4.229,0,0,0-4.224,4.224v9.939a4.229,4.229,0,0,0,4.224,4.224h9.939a4.229,4.229,0,0,0,4.224-4.224v-9.939a4.229,4.229,0,0,0-4.224-4.224Z" transform="translate(-183.479 -311.928)" fill="#fff" stroke="#312a2a" stroke-linecap="round" stroke-width="1"/>
      <path id="Path_291" data-name="Path 291" d="M350.156,358.3a7.032,7.032,0,0,1-2.6-.5l-2.9-1.151a1.408,1.408,0,0,1,1.038-2.618l2.9,1.151a4.224,4.224,0,0,0,5.483-2.37l3.663-9.239a4.224,4.224,0,0,0-2.37-5.483l-9.239-3.663a4.224,4.224,0,0,0-5.483,2.37l-2.512,6.337a1.408,1.408,0,0,1-2.618-1.038l2.512-6.337a7.04,7.04,0,0,1,9.139-3.95l9.239,3.663a7.04,7.04,0,0,1,3.95,9.139l-3.663,9.239a7.056,7.056,0,0,1-6.543,4.449Z" transform="translate(-239.105 -269.106)" fill="#fff" stroke="#312a2a" stroke-linecap="round" stroke-width="1"/>
      <path id="Path_292" data-name="Path 292" d="M59.093,108.825a15.89,15.89,0,0,1-2.77-.244,4.219,4.219,0,0,1-3.46-4.7c.153-1.167.292-2.73.415-4.644a1.408,1.408,0,1,1,2.81.18c-.127,1.976-.272,3.6-.433,4.829a1.408,1.408,0,0,0,1.158,1.567,13.052,13.052,0,0,0,4.567,0,1.425,1.425,0,0,0,1.121-1.016,1.408,1.408,0,0,1,2.714.75,4.254,4.254,0,0,1-3.343,3.038A15.9,15.9,0,0,1,59.093,108.825Z" transform="translate(-9.56 -79.524)" fill="#fff" stroke="#312a2a" stroke-linecap="round" stroke-width="1"/>
      <path id="Path_293" data-name="Path 293" d="M53.988,21.732a1.408,1.408,0,0,1-1.4-1.311c-.286-4.157-.417-8.931-.366-10.12A1.408,1.408,0,0,1,53.3,8.992l.693-.166a1.5,1.5,0,0,0,1.17-1.143,1.368,1.368,0,0,0-.548-1.407l-4.057-3.1a1.689,1.689,0,0,0-2.049,0l-4.057,3.1A1.368,1.368,0,0,0,43.9,7.683a1.5,1.5,0,0,0,1.17,1.143l.693.166A1.408,1.408,0,0,1,46.846,10.3c.026.6.007,2.092-.05,3.888a1.408,1.408,0,1,1-2.815-.089c.035-1.1.052-1.995.058-2.643a4.291,4.291,0,0,1-2.89-3.19A4.2,4.2,0,0,1,42.74,4.039L46.8.936a4.511,4.511,0,0,1,5.471,0l4.057,3.1a4.2,4.2,0,0,1,1.591,4.229,4.291,4.291,0,0,1-2.891,3.19c.018,1.889.148,5.558.369,8.77a1.408,1.408,0,0,1-1.308,1.5Q54.036,21.732,53.988,21.732Z" transform="translate(0 0)" fill="#fff" stroke="#312a2a" stroke-linecap="round" stroke-width="1"/>
      <path id="Path_294" data-name="Path 294" d="M102.237,82.824a4.527,4.527,0,0,1,2.735.926l4.057,3.1a4.2,4.2,0,0,1,1.591,4.228,4.291,4.291,0,0,1-2.884,3.188,31.754,31.754,0,0,0,.5,4.6,4.192,4.192,0,0,1-.69,3.213,4.148,4.148,0,0,1-2.752,1.732,16,16,0,0,1-5.1,0,4.207,4.207,0,0,1-3.443-4.941,31.816,31.816,0,0,0,.491-4.606,4.291,4.291,0,0,1-2.884-3.187,4.2,4.2,0,0,1,1.591-4.229l4.057-3.1A4.526,4.526,0,0,1,102.237,82.824Zm0,18.381a13.141,13.141,0,0,0,2.1-.17,1.354,1.354,0,0,0,.9-.567,1.4,1.4,0,0,0,.231-1.071,32.015,32.015,0,0,1-.544-6.281A1.408,1.408,0,0,1,106,91.807l.693-.166a1.5,1.5,0,0,0,1.17-1.144,1.367,1.367,0,0,0-.548-1.407l-4.057-3.1a1.686,1.686,0,0,0-2.049,0l-4.057,3.1a1.368,1.368,0,0,0-.548,1.407,1.5,1.5,0,0,0,1.169,1.143l.693.166a1.408,1.408,0,0,1,1.079,1.309,31.873,31.873,0,0,1-.539,6.29,1.385,1.385,0,0,0,.229,1.062,1.357,1.357,0,0,0,.9.569A13.134,13.134,0,0,0,102.238,101.206Z" transform="translate(-42.811 -67.266)" fill="#fff" stroke="#312a2a" stroke-linecap="round" stroke-width="1"/>
    </g>
    <rect id="Rectangle_35" data-name="Rectangle 35" width="20" height="20" rx="5" transform="translate(1263 5764)" fill="#bf7146"/>
  </g>
</svg>
