<svg xmlns="http://www.w3.org/2000/svg" width="15.772" height="17.92" viewBox="0 0 15.772 17.92">
  <path id="Path_30756" data-name="Path 30756" d="M4.886-25.536a1.334,1.334,0,0,1-.952-.406,1.992,1.992,0,0,1-.532-1.19l-1.148-11.7a5.128,5.128,0,0,1,.392-3.43,2.6,2.6,0,0,1,2.408-1.19,2.53,2.53,0,0,1,2.394,1.19,5.24,5.24,0,0,1,.322,3.43L6.454-27.1a2.018,2.018,0,0,1-.546,1.2A1.474,1.474,0,0,1,4.886-25.536Zm-10.024,0a1.334,1.334,0,0,1-.952-.406,1.992,1.992,0,0,1-.532-1.19l-1.148-11.7a5.128,5.128,0,0,1,.392-3.43,2.6,2.6,0,0,1,2.408-1.19,2.53,2.53,0,0,1,2.394,1.19,5.24,5.24,0,0,1,.322,3.43L-3.57-27.1a2.018,2.018,0,0,1-.546,1.2A1.474,1.474,0,0,1-5.138-25.536Z" transform="translate(7.876 43.456)" fill="#27472c"/>
</svg>
