<svg xmlns="http://www.w3.org/2000/svg" width="16.954" height="20.321" viewBox="0 0 16.954 20.321">
  <g id="user_2_" data-name="user (2)" transform="translate(0 0)">
    <path id="Path_29780" data-name="Path 29780" d="M91.926,9.789a4.736,4.736,0,0,0,3.461-1.434,4.736,4.736,0,0,0,1.434-3.461,4.736,4.736,0,0,0-1.434-3.461,4.893,4.893,0,0,0-6.921,0,4.736,4.736,0,0,0-1.434,3.46,4.736,4.736,0,0,0,1.434,3.461A4.738,4.738,0,0,0,91.926,9.789ZM89.308,2.276a3.7,3.7,0,0,1,5.237,0A3.539,3.539,0,0,1,95.63,4.894a3.538,3.538,0,0,1-1.085,2.619,3.7,3.7,0,0,1-5.237,0,3.538,3.538,0,0,1-1.085-2.619,3.538,3.538,0,0,1,1.085-2.618Zm0,0" transform="translate(-83.578)" fill="#fbf7f3"/>
    <path id="Path_29781" data-name="Path 29781" d="M16.913,253.126a12.09,12.09,0,0,0-.165-1.284,10.117,10.117,0,0,0-.316-1.291,6.379,6.379,0,0,0-.531-1.2,4.539,4.539,0,0,0-.8-1.043,3.528,3.528,0,0,0-1.15-.722,3.973,3.973,0,0,0-1.468-.266,1.489,1.489,0,0,0-.8.337c-.238.156-.517.335-.829.534a4.748,4.748,0,0,1-1.072.472,4.163,4.163,0,0,1-2.623,0,4.733,4.733,0,0,1-1.071-.472c-.308-.2-.587-.377-.829-.535a1.488,1.488,0,0,0-.8-.337A3.968,3.968,0,0,0,3,247.582a3.525,3.525,0,0,0-1.15.722,4.54,4.54,0,0,0-.8,1.043,6.39,6.39,0,0,0-.531,1.2,10.14,10.14,0,0,0-.316,1.291,12.007,12.007,0,0,0-.165,1.285c-.027.388-.041.792-.041,1.2a3.374,3.374,0,0,0,1,2.553,3.607,3.607,0,0,0,2.582.942h9.785a3.608,3.608,0,0,0,2.582-.942,3.373,3.373,0,0,0,1-2.553c0-.409-.014-.813-.041-1.2Zm-1.782,2.89a2.429,2.429,0,0,1-1.761.614H3.584a2.429,2.429,0,0,1-1.761-.614,2.2,2.2,0,0,1-.632-1.69c0-.381.013-.757.038-1.118a10.829,10.829,0,0,1,.149-1.156,8.943,8.943,0,0,1,.278-1.138,5.2,5.2,0,0,1,.432-.979,3.364,3.364,0,0,1,.588-.771,2.341,2.341,0,0,1,.765-.475,2.741,2.741,0,0,1,.938-.181c.042.022.116.064.236.143.245.16.527.342.839.541a5.9,5.9,0,0,0,1.346.6,5.354,5.354,0,0,0,3.355,0,5.908,5.908,0,0,0,1.347-.6c.319-.2.593-.381.838-.54.12-.078.195-.121.236-.143a2.743,2.743,0,0,1,.938.181,2.345,2.345,0,0,1,.765.476,3.355,3.355,0,0,1,.588.771,5.184,5.184,0,0,1,.432.979,8.923,8.923,0,0,1,.278,1.138,10.921,10.921,0,0,1,.149,1.157h0c.025.36.038.735.038,1.117a2.2,2.2,0,0,1-.633,1.69Zm0,0" transform="translate(0 -237.5)" fill="#fbf7f3"/>
  </g>
</svg>
